<?xml version="1.0" encoding="iso-8859-1"?>
<!-- Generator: Adobe Illustrator 16.2.0, SVG Export Plug-In . SVG Version: 6.00 Build 0)  -->
<!DOCTYPE svg PUBLIC "-//W3C//DTD SVG 1.1//EN" "http://www.w3.org/Graphics/SVG/1.1/DTD/svg11.dtd">
<svg version="1.1" id="&#x421;&#x43B;&#x43E;&#x439;_1"
	 xmlns="http://www.w3.org/2000/svg" xmlns:xlink="http://www.w3.org/1999/xlink" x="0px" y="0px" width="189.4px"
	 height="213.044px" viewBox="0 0 189.4 213.044" style="enable-background:new 0 0 189.4 213.044;" xml:space="preserve">
<path style="fill:#0085D4;" d="M17.052,41.367C31.304,20.79,53.535,5.803,80.198,1.586c34.509-5.47,67.548,8.47,88.237,33.66
	c10.344,12.613,17.646,27.988,20.37,45.256c5.462,34.498-8.446,67.526-33.635,88.194c-1.886,1.565-3.856,3.024-5.854,4.436
	c5.914,17.147,18.412,31.172,37.007,39.939c0,0-60.565,3.803-85.33-22.999c-6.68,0.413-13.276,0.156-19.701-0.782
	c-40.012-5.826-73.354-37.04-80.01-79.103C-2.697,85.09,3.63,60.752,17.052,41.367z"/>
<g>
	<path style="fill-rule:evenodd;clip-rule:evenodd;fill:#FFFFFF;" d="M91.224,21.671c4.068,1.442,7.081,3.8,8.794,7.946
		c0.943,2.282,1.151,2.948,2.462,5.09c0.495,0.809,5.348,4.129,1.881,10.502c-1.118,2.055-1.657,3-3.078,5.25
		c-2.066-1.608-3.349-2.71-5.572-4.886c-2.694-2.979-3.932-6.515,0.011-9.934c0.64-0.554,0.552-2.601,0.095-3.649
		c-1.744-3.995-5.003-5.984-9.344-6.319c-4.636-0.356-8.284,1.196-10.703,5.275c-3.773,6.364-2.644,14.886,3.636,18.993
		c4.652,3.042,10.252,4.79,15.615,6.55c5.29,1.736,10.89,2.512,16.218,4.15c15.004,4.615,16.061,17.416,11.794,27.691
		c-3.805,9.166-10.728,14.359-19.628,17.082c-2.724,0.833-5.99-4.712-0.024-7.437c7.529-3.829,12.255-13.142,11.059-21.486
		c-0.582-4.052-3.063-6.635-6.538-7.954c-5.551-2.108-11.259-3.842-16.978-5.462c-5.943-1.682-11.502-3.995-16.072-8.255
		c-6.118-5.707-8.731-12.732-6.692-20.9c1.85-7.412,7.287-11.232,14.608-12.611C83.083,21.249,88.918,20.852,91.224,21.671z"/>
	<path style="fill-rule:evenodd;clip-rule:evenodd;fill:#FFFFFF;" d="M97.172,121.969c-2.11,0-3.443,0-5.042,0
		c0-7.605,0-15.017,0-22.914c-2.699-0.412-5.226-0.733-7.729-1.189c-8.646-1.579-16.158-5.627-22.97-10.983
		c-6.871-5.404-14.352-9.228-23.078-10.624c-2.287-0.365-4.413-1.738-6.612-2.647c-0.831-0.392-0.429-1.463,0.275-1.463
		s50.523,0.146,74.278,0c3.663-0.022,4.849,1.683,5.409,4.623c1.46,7.684-4.251,17.87-11.749,20.456
		c-2.242,0.772-2.848,1.844-2.819,4.006C97.23,108.047,97.172,114.862,97.172,121.969z"/>
	<path style="fill-rule:evenodd;clip-rule:evenodd;fill:#FFFFFF;" d="M99.728,114.456c-1.954-0.359-1.868-3.211,0.837-4.197
		c0.613-0.225,1.313-0.49,2.167-0.563c2.571-0.211,5.231-0.566,7.733-0.145c6.73,1.135,9.18,7.32,4.539,12.408
		c-2.63,2.883-6.449,5.104-10.155,6.494c-7.795,2.922-15.615,2.633-22.8-2.256c-4.598-3.127-7.038-7.43-6.162-13.014
		c0.971-6.182,4.73-10.228,10.668-12.2c1.139-0.378,2.667,0.101,3.333,1.008c1.091,1.481,0.996,3.988-1.06,5.889
		c-0.837,0.774-2.202,1.534-3.064,2.536c-3.658,4.25-2.642,10.082,2.612,11.91c3.601,1.254,7.765,1.449,11.629,1.234
		c4.001-0.221,6.436-2.973,6.146-5.746C105.721,113.704,102.335,114.829,99.728,114.456z"/>
	<path style="fill-rule:evenodd;clip-rule:evenodd;fill:#FFFFFF;" d="M125.529,164.026c-20.375,0-40.749,0-61.123,0
		c-0.071-0.281-0.141-0.561-0.212-0.842c2.002-0.432,4.023-0.789,6.002-1.307c6.314-1.66,12.581-3.492,18.882-5.182
		c2.258-0.605,2.623-1.759,2.755-8.003c0.018-0.821,0.119-1.386,0.119-1.386l5.548,0.728c0,0,0.048,1.062,0.059,1.292
		c0.338,7.248,0.374,7.072,7.686,8.588c6.391,1.324,19.967,5.225,20.438,5.494C125.631,163.614,125.58,163.821,125.529,164.026z"/>
	<path style="fill-rule:evenodd;clip-rule:evenodd;fill:#FFFFFF;" d="M126.262,88.506c2.146-5.887,2.489-10.822,1.117-15.954
		c9.668,0,29.271,0,29.897,0c0.789,0,0.836,0.472,0.383,0.727c-1.67,0.699-3.287,1.79-5.021,2.031
		C142.47,76.724,133.714,80.938,126.262,88.506z"/>
	<path style="fill-rule:evenodd;clip-rule:evenodd;fill:#FFFFFF;" d="M111.483,147.897c-1.075-0.136-10.568-1.406-15.867-1.965
		c-4.394-0.463-8.551-1.4-11.946-4.465c-3.566-3.217-4.892-6.984-3.522-11.307c0.249-0.789,1.044-1.43,2.326-0.988
		c2.554,0.877,4.548,2.195,4.727,5.926c0.192,3.975,3.727,5.307,6.965,6.266c3.551,1.055,7.291,1.496,10.799,2.658
		c2.28,0.754,4.361,2.108,6.504,3.281C111.705,147.433,112.559,148.033,111.483,147.897z"/>
	<path style="fill-rule:evenodd;clip-rule:evenodd;fill:#FFFFFF;" d="M91.949,131.975c0.46,0.096,1.534,0.33,2.341,0.33
		c0.789,0,1.705-0.031,2.59-0.031c0,2.752,0,5.656,0,8.281C91.607,140.138,91.297,139.165,91.949,131.975z"/>
	<path style="fill-rule:evenodd;clip-rule:evenodd;fill:#FFFFFF;" d="M90.519,114.471c0,3.26-1.898,7.086-2.576,6.305
		c-2.895-3.217-2.37-5.33,1.194-6.973C89.561,113.608,90.519,113.78,90.519,114.471z"/>
</g>
</svg>
